<?xml version="1.0" encoding="UTF-8" standalone="no"?>
<svg
   version="1.1"
   id="Layer_1"
   x="0px"
   y="0px"
   width="1500"
   viewBox="0 0 1500 427"
   enable-background="new 0 0 443 427"
   xml:space="preserve"
   sodipodi:docname="inseri_logo_full.svg"
   inkscape:version="1.2.1 (0f2f062aeb, 2022-09-21, custom)"
   height="427"
   inkscape:export-filename="../1b5aa25d/inseri_logo_full.png"
   inkscape:export-xdpi="15.737705"
   inkscape:export-ydpi="15.737705"
   xmlns:inkscape="http://www.inkscape.org/namespaces/inkscape"
   xmlns:sodipodi="http://sodipodi.sourceforge.net/DTD/sodipodi-0.dtd"
   xmlns="http://www.w3.org/2000/svg"
   xmlns:svg="http://www.w3.org/2000/svg"><defs
   id="defs43" /><sodipodi:namedview
   id="namedview41"
   pagecolor="#ffffff"
   bordercolor="#666666"
   borderopacity="1.0"
   inkscape:showpageshadow="2"
   inkscape:pageopacity="0"
   inkscape:pagecheckerboard="0"
   inkscape:deskcolor="#d1d1d1"
   showgrid="false"
   inkscape:zoom="1.1686183"
   inkscape:cx="886.51705"
   inkscape:cy="89.849701"
   inkscape:window-width="3016"
   inkscape:window-height="1366"
   inkscape:window-x="26"
   inkscape:window-y="23"
   inkscape:window-maximized="0"
   inkscape:current-layer="Layer_1" />

<path
   fill="#f5c80e"
   opacity="1"
   stroke="none"
   d="m 260,406.00116 c -46.6624,0 -92.8248,0.002 -138.98719,-0.002 -6.93883,-7e-4 -10.07359,-4.20795 -8.5229,-10.88754 5.24997,-22.61432 10.326,-45.26896 15.55526,-67.88816 4.38635,-18.97323 8.91622,-37.91327 13.34176,-56.8775 4.65164,-19.93321 9.23836,-39.88159 13.88437,-59.81613 3.68407,-15.80719 7.45802,-31.59372 11.03909,-47.42403 0.27274,-1.20563 -0.37172,-3.67013 -1.09933,-3.89407 -12.29508,-3.78411 -15.08702,-13.30501 -15.24008,-24.53662 -0.007,-0.48035 -0.1827,-0.95836 -0.30834,-1.5781 -18.34004,5.66381 -36.61759,11.28929 -54.882885,16.95432 -18.586571,5.76466 -37.157841,11.57863 -55.743168,17.34729 -4.498223,1.39621 -9.662129,-0.61016 -10.92803,-4.15918 -1.77343,-4.9719 0.434999,-9.56487 5.74106,-11.23067 29.873695,-9.3786 59.772797,-18.6763 89.664403,-27.99782 10.24289,-3.19418 20.43248,-6.5813 30.76494,-9.45404 3.57066,-0.99276 7.50041,-0.69394 11.49808,-1.00304 0,-4.62309 0,-9.37422 0,-14.295412 C 151.08783,99.245506 138.1947,92.846436 124.73229,88.834167 94.466431,79.813896 64.363441,70.247704 34.180794,60.947071 c -5.13406,-1.582035 -7.574423,-6.057217 -6.158367,-11.717464 0.860733,-3.440518 5.234336,-5.55196 9.916183,-4.17809 14.616596,4.289162 29.180264,8.76138 43.735142,13.257515 22.464288,6.939434 44.904288,13.957455 67.061078,20.850827 1.85739,-5.125954 2.473,-10.870629 5.57895,-14.460915 4.81786,-5.569149 10.99315,-10.183468 17.19736,-14.289287 14.0137,-9.273987 28.24425,-18.251839 42.76172,-26.705943 2.83819,-1.652801 8.24409,-1.861936 10.9817,-0.236908 16.81522,9.981375 33.44973,20.318263 49.63957,31.282267 9.23127,6.251575 13.43882,5.483963 14.52945,24.504017 3.50882,-0.881065 6.97309,-1.576798 10.32905,-2.620667 32.09063,-9.981857 64.15945,-20.033725 96.24609,-30.028541 3.07489,-0.957817 6.30957,-2.532593 9.32165,-2.248341 3.08942,0.29155 6.60526,1.504677 6.78824,6.249836 0.18805,4.875202 -0.23456,8.684624 -5.82437,10.268906 -9.52817,2.700523 -18.96731,5.716759 -28.43408,8.632164 -14.88559,4.584213 -29.77268,9.163917 -44.6413,13.802605 -16.103,5.023765 -32.14941,10.23365 -48.30749,15.071731 -3.23212,0.967758 -6.85611,0.626618 -10.60016,0.911911 0,4.695686 0,9.428786 0,14.162656 18.95828,1.28182 36.09811,9.17118 53.90875,14.54386 25.13611,7.58245 50.22931,15.30774 75.32245,23.03173 4.09064,1.25916 8.30304,2.57842 8.47382,8.07319 0.20925,6.7332 -4.44434,10.3388 -10.96567,8.3368 -21.07904,-6.47119 -42.1583,-12.94246 -63.20603,-19.51443 -15.62201,-4.87784 -31.19378,-9.91657 -46.79681,-14.85555 -0.44162,-0.1398 -0.98431,0.0398 -2.03653,0.10489 0,2.26027 -0.27048,4.56554 0.0492,6.78584 1.09061,7.57587 -5.86035,16.60187 -12.12964,18.45662 -3.2723,0.96813 -4.06341,1.99097 -3.12567,5.8523 6.6659,27.44758 12.83365,55.0159 19.20432,82.53552 3.61938,15.63486 7.37564,31.2381 10.9733,46.87787 3.7435,16.27377 6.64163,32.78372 11.24368,48.80713 5.0603,17.61871 7.10715,35.88449 12.5809,53.37912 1.7757,5.6752 -2.33704,10.10571 -8.80185,10.11783 -19.49841,0.0365 -38.99692,0.0131 -58.99539,0.0131 m 25.99152,-118.38043 c -1.7974,-7.08948 -3.59479,-14.17896 -5.40412,-21.31552 -1.60199,0.57125 -3.3627,1.0068 -4.94961,1.79309 -42.96386,21.28909 -85.92514,42.58365 -128.8082,64.03451 -1.88364,0.94223 -3.87804,3.15656 -4.37183,5.13919 -3.00415,12.06241 -5.58801,24.22953 -8.35731,36.56287 51.56611,-25.54794 102.824,-50.94318 154.02952,-76.31247 -0.79077,-3.35971 -1.46057,-6.20544 -2.13845,-9.90167 m -4.37079,31.43704 c -47.05599,23.39508 -94.11197,46.79019 -141.16796,70.18527 22.7759,0.75516 45.25206,0.76572 67.72815,0.72318 1.09584,-0.002 2.29103,-0.26642 3.27159,-0.75 28.37256,-13.99115 56.73823,-27.99677 85.02793,-42.15415 1.20297,-0.60199 2.59018,-2.8797 2.33447,-4.03094 -2.13678,-9.62073 -4.63879,-19.16034 -7.07971,-28.9205 -3.28177,1.69482 -6.3212,3.26449 -10.11447,4.94714 m -38.96535,-52.91656 c 11.42696,-5.67158 22.8539,-11.34313 34.22649,-16.98772 -2.51258,-10.77378 -4.88697,-20.9549 -7.32767,-31.42044 -36.92307,18.24417 -73.39272,36.23814 -109.79764,54.3621 -1.26462,0.62958 -2.34889,2.43528 -2.72899,3.89771 -2.77675,10.68338 -5.38377,21.41162 -7.94436,32.14954 -0.27916,1.17059 0.0767,2.49264 0.17756,4.55181 31.3015,-15.5578 62.03958,-30.83557 93.39461,-46.553 M 169.44967,221.9347 c -2.27509,9.90259 -4.55016,19.80518 -7.08948,30.85784 35.27315,-17.61145 69.29785,-34.59957 103.40441,-51.62856 -2.45911,-10.57678 -4.8555,-20.88399 -7.32788,-31.51791 -1.61634,0.63365 -2.84456,1.01414 -3.9831,1.57632 -25.47508,12.57877 -50.83104,25.40744 -76.49009,37.59836 -5.84997,2.77937 -8.03544,6.52139 -8.51386,13.11395 M 236.5,82.998817 c 12.09485,0 24.1897,0 37.09058,0 -0.65439,-3.999191 -0.29609,-7.901802 -1.9795,-10.46186 -1.85235,-2.816948 -5.471,-4.576149 -8.51309,-6.48935 -14.34601,-9.022312 -28.75813,-17.939472 -43.23826,-26.951126 -15.57697,9.909565 -31.28333,19.866139 -46.95009,29.884652 -6.72953,4.303367 -7.04024,5.270561 -5.23018,14.017684 22.57094,0 45.19574,0 68.82054,0 m 14.99989,46.989743 c -28.06364,0 -56.12729,0 -84.5066,0 0,3.5117 0.0177,6.47679 -0.005,9.44158 -0.0234,3.05993 1.44809,4.58262 4.52684,4.58213 32.28386,-0.005 64.5681,0.0524 96.85042,-0.17165 1.55353,-0.0108 4.06302,-2.26304 4.4271,-3.8593 0.70779,-3.10319 0.20724,-6.48201 0.20724,-9.99276 -7.23361,0 -13.86688,0 -21.50008,0 m -52.9978,-15.98976 c 19.72748,0 39.45496,0 59.19203,0 0,-5.2877 0,-10.00867 0,-14.717031 -25.32892,0 -50.35208,0 -75.38833,0 0,5.006911 0,9.727871 0,14.717031 5.26739,0 10.23268,0 16.1963,0 m 5.99818,46.00239 c -5.65832,9e-5 -11.3173,0.0516 -16.97465,-0.0229 -2.56212,-0.0338 -4.30362,0.15794 -4.66977,3.53843 -0.4142,3.82396 -1.93985,7.51456 -2.76946,11.30966 -1.15347,5.2768 -2.10911,10.59685 -3.34091,16.87415 21.27312,-10.642 41.52036,-20.77078 61.7676,-30.89958 -0.0804,-0.26657 -0.16085,-0.53316 -0.24128,-0.79973 -10.92387,0 -21.84776,0 -33.77153,0 M 285.5,389.99884 c 7.97296,0 15.94589,0 24.2139,0 -2.20304,-9.21875 -4.34635,-18.18753 -6.56339,-27.4649 -18.79336,9.20617 -36.68475,17.97052 -54.57609,26.73483 0.0692,0.24334 0.13836,0.48672 0.20755,0.73007 11.90602,0 23.81202,0 36.71803,0 z"
   id="path20" />









<g
   id="g7772"
   transform="matrix(1.1830683,0,0,1.1830683,-24.95348,-73.988942)"><path
     d="m 465.10546,195.53934 c -12.17881,0 -18.26821,-5.93055 -18.26821,-17.79165 0,-6.88367 1.74739,-12.39061 5.24218,-16.52081 3.60069,-4.23611 8.36631,-6.35416 14.29686,-6.35416 12.17881,0 18.26821,5.9835 18.26821,17.9505 0,7.41319 -1.8533,13.07898 -5.55989,16.99738 -3.60069,3.81249 -8.2604,5.71874 -13.97915,5.71874 z"
     style="font-style:italic;font-size:325.333px;line-height:1.25;font-family:'Droid Serif';-inkscape-font-specification:'Droid Serif Italic';fill:#f5c80e;fill-opacity:1"
     id="path6903-3-6"
     sodipodi:nodetypes="sscsscs" /><path
     d="m 535.76028,402.51083 h -30.34112 l 27.32289,-130.73684 q 1.90625,-9.05468 1.90625,-14.61457 0,-15.40884 -22.71613,-15.40884 h -2.54166 l 2.85937,-13.66145 h 60.20567 l -8.73697,40.98434 h 3.17708 q 26.36977,-43.84371 59.25255,-43.84371 34.78902,0 34.78902,36.05986 0,10.32551 -5.87759,35.74215 l -8.41927,38.44267 q -4.28906,19.53905 -4.28906,34.15361 0,15.5677 11.43749,15.5677 9.37239,0 20.80988,-7.46614 l 5.8776,9.53124 q -21.28644,18.42706 -39.71351,18.42706 -13.50259,0 -21.60414,-8.73697 -7.9427,-8.73697 -7.9427,-23.66924 0,-14.93228 6.19531,-44.00256 l 7.46613,-33.67705 q 4.76562,-19.6979 4.76562,-30.34112 0,-19.22133 -14.93227,-19.22133 -18.10936,0 -37.17184,24.46351 -18.90363,24.46352 -24.30466,48.76818 z"
     style="font-style:italic;font-size:325.333px;line-height:1.25;font-family:'Droid Serif';-inkscape-font-specification:'Droid Serif Italic'"
     id="path6905" /><path
     d="m 803.74698,276.2219 q 0,-16.36197 -7.78384,-26.21091 -7.625,-9.84895 -21.44529,-9.84895 -14.61457,0 -23.19269,7.9427 -8.41926,7.78384 -8.41926,20.0156 0,10.80208 8.10155,18.42707 8.10156,7.62499 25.09894,15.09113 39.07808,17.47394 39.07808,50.51557 0,23.98696 -18.42706,38.76038 -18.42707,14.77342 -48.92704,14.77342 -24.62237,0 -39.23694,-9.84894 -14.45571,-10.00781 -14.45571,-26.84633 0,-10.48437 5.71874,-15.8854 5.8776,-5.55989 14.77342,-5.55989 0,20.17446 9.6901,31.45309 9.84895,11.11978 27.48174,11.11978 35.10674,0 35.10674,-30.18226 0,-11.59634 -7.46614,-19.53904 -7.46614,-8.10156 -25.41664,-16.36197 -23.35154,-11.11978 -31.45309,-22.87497 -7.94271,-11.91405 -7.94271,-27.48175 0,-21.28643 17.31509,-34.78902 17.47394,-13.66145 45.43225,-13.66145 23.98695,0 37.33069,8.89583 13.50259,8.89582 13.50259,21.92185 0,20.17446 -24.46352,20.17446 z"
     style="font-style:italic;font-size:325.333px;line-height:1.25;font-family:'Droid Serif';-inkscape-font-specification:'Droid Serif Italic'"
     id="path6907" /><path
     d="m 967.36659,361.84421 q 3.33593,2.0651 3.33593,8.10155 0,13.02603 -15.40884,24.46352 -15.24998,11.27863 -40.98433,11.27863 -28.43487,0 -45.90881,-17.9505 -17.47394,-17.9505 -17.47394,-49.24474 0,-42.57288 27.48174,-77.99732 27.48175,-35.5833 69.41921,-35.5833 20.65102,0 31.92965,9.84895 11.43749,9.84895 11.43749,27.48174 0,26.36977 -27.48174,45.90881 -27.32289,19.53905 -66.87754,19.53905 h -5.55989 q -2.85937,0 -5.8776,-0.31771 -0.63541,4.44791 -0.63541,13.66144 0,44.16142 35.74215,44.16142 27.79945,0 46.86193,-23.35154 z m -78.95044,-49.4036 h 3.17708 q 28.75257,0 47.33849,-13.97915 18.74477,-13.97915 18.74477,-36.21872 0,-21.76299 -18.90362,-21.76299 -15.72655,0 -29.38799,19.85675 -13.66145,19.69789 -20.96873,52.10411 z"
     style="font-style:italic;font-size:325.333px;line-height:1.25;font-family:'Droid Serif';-inkscape-font-specification:'Droid Serif Italic'"
     id="path6909" /><path
     d="m 1124.3144,272.09169 q 0,-25.73435 -13.0261,-25.73435 -15.0911,0 -32.0885,29.7057 -16.8385,29.7057 -24.9401,67.19525 l -12.2317,59.25254 h -30.3411 l 27.3229,-130.73684 q 1.9062,-9.05468 1.9062,-14.61457 0,-15.40884 -25.8932,-15.40884 h -2.7005 l 3.0182,-13.66145 h 57.5052 l -6.8308,46.86194 h 3.336 q 13.026,-29.07029 25.7343,-39.55465 12.7084,-10.48437 29.5469,-10.48437 26.6874,0 26.6874,22.39842 0,24.78122 -27.0051,24.78122 z"
     style="font-style:italic;font-size:325.333px;line-height:1.25;font-family:'Droid Serif';-inkscape-font-specification:'Droid Serif Italic'"
     id="path6911" /><path
     d="m 1222.4576,195.52165 c -12.1789,0 -18.2683,-5.93055 -18.2683,-17.79165 0,-6.88367 1.7474,-12.39061 5.2422,-16.52081 3.6007,-4.2361 8.3663,-6.35416 14.2969,-6.35416 12.1788,0 18.2682,5.9835 18.2682,17.9505 0,7.41319 -1.8533,13.07898 -5.5599,16.99738 -3.6007,3.8125 -8.2604,5.71874 -13.9791,5.71874 z"
     style="font-style:italic;font-size:325.333px;line-height:1.25;font-family:'Droid Serif';-inkscape-font-specification:'Droid Serif Italic';fill:#f5c80e;fill-opacity:1"
     id="path6903-3"
     sodipodi:nodetypes="sscsscs" /><path
     d="m 412.33071,241.75058 2.85937,-13.66145 h 58.29942 l -22.08071,104.52594 c -3.28298,15.56769 -4.92447,27.58765 -4.92447,36.05986 0,11.01388 3.60069,16.52082 10.80207,16.52082 6.24826,0 14.03211,-2.80642 23.35154,-8.41927 l 5.8776,9.53124 c -15.03818,12.92013 -29.7057,19.38019 -44.00256,19.38019 -8.0486,0 -14.56161,-2.91232 -19.53904,-8.73697 -4.97743,-5.82465 -7.46614,-13.18488 -7.46614,-22.0807 0,-9.74305 2.43576,-26.79338 7.30728,-51.15099 l 12.54947,-59.72911 c 0.74132,-3.49479 1.11198,-6.35416 1.11198,-8.57812 0,-9.10763 -6.61892,-13.66144 -19.85675,-13.66144 z"
     style="font-style:italic;font-size:325.333px;line-height:1.25;font-family:'Droid Serif';-inkscape-font-specification:'Droid Serif Italic'"
     id="path6903"
     sodipodi:nodetypes="ccccssccsssccssc" /><path
     d="m 1169.7466,241.75058 2.8594,-13.66145 h 58.2994 l -22.0807,104.52594 c -3.283,15.56769 -4.9245,27.58765 -4.9245,36.05986 0,11.01388 3.6007,16.52082 10.8021,16.52082 6.2483,0 14.0321,-2.80642 23.3515,-8.41927 l 5.8776,9.53124 c -15.0381,12.92013 -29.7056,19.38019 -44.0025,19.38019 -8.0486,0 -14.5616,-2.91232 -19.5391,-8.73697 -4.9774,-5.82465 -7.4661,-13.18488 -7.4661,-22.0807 0,-9.74305 2.4358,-26.79338 7.3073,-51.15099 l 12.5494,-59.72911 c 0.7413,-3.49479 1.112,-6.35416 1.112,-8.57812 0,-9.10763 -6.6189,-13.66144 -19.8567,-13.66144 z"
     style="font-style:italic;font-size:325.333px;line-height:1.25;font-family:'Droid Serif';-inkscape-font-specification:'Droid Serif Italic'"
     id="path6913"
     sodipodi:nodetypes="ccccssccsssccssc" /></g></svg>
