<?xml version="1.0" encoding="UTF-8" standalone="no"?>
<svg
   version="1.1"
   id="Layer_1"
   x="0px"
   y="0px"
   width="100%"
   viewBox="0 0 443 427"
   enable-background="new 0 0 443 427"
   xml:space="preserve"
   sodipodi:docname="inseri_logo.svg"
   inkscape:version="1.2.1 (2ed6d7ae0b, 2022-08-22, custom)"
   xmlns:inkscape="http://www.inkscape.org/namespaces/inkscape"
   xmlns:sodipodi="http://sodipodi.sourceforge.net/DTD/sodipodi-0.dtd"
   xmlns="http://www.w3.org/2000/svg"
   xmlns:svg="http://www.w3.org/2000/svg"><defs
   id="defs43" /><sodipodi:namedview
   id="namedview41"
   pagecolor="#ffffff"
   bordercolor="#666666"
   borderopacity="1.0"
   inkscape:showpageshadow="2"
   inkscape:pageopacity="1"
   inkscape:pagecheckerboard="0"
   inkscape:deskcolor="#d1d1d1"
   showgrid="false"
   inkscape:zoom="2.3372365"
   inkscape:cx="221.62926"
   inkscape:cy="213.5"
   inkscape:window-width="1637"
   inkscape:window-height="1214"
   inkscape:window-x="26"
   inkscape:window-y="23"
   inkscape:window-maximized="0"
   inkscape:current-layer="Layer_1" />

<path
   fill="#F5C80E"
   opacity="1.000000"
   stroke="none"
   d=" M260.000000,406.001160   C213.337601,406.001160 167.175201,406.003448 121.012810,405.998718   C114.073982,405.998016 110.939224,401.790771 112.489914,395.111176   C117.739883,372.496857 122.815910,349.842224 128.045166,327.223022   C132.431519,308.249786 136.961395,289.309753 141.386932,270.345520   C146.038574,250.412308 150.625290,230.463928 155.271301,210.529388   C158.955368,194.722198 162.729324,178.935669 166.310394,163.105362   C166.583130,161.899734 165.938675,159.435226 165.211060,159.211288   C152.915985,155.427185 150.124039,145.906281 149.970978,134.674667   C149.964432,134.194321 149.788284,133.716309 149.662643,133.096573   C131.322601,138.760376 113.045052,144.385864 94.779755,150.050888   C76.193184,155.815552 57.621914,161.629517 39.036587,167.398178   C34.538364,168.794388 29.374458,166.788025 28.108557,163.238998   C26.335127,158.267105 28.543556,153.674133 33.849617,152.008331   C63.723312,142.629730 93.622414,133.332031 123.514023,124.010506   C133.756912,120.816330 143.946503,117.429207 154.278961,114.556465   C157.849625,113.563713 161.779373,113.862526 165.777039,113.553429   C165.777039,108.930336 165.777039,104.179214 165.777039,99.258018   C151.087830,99.245506 138.194702,92.846436 124.732292,88.834167   C94.466431,79.813896 64.363441,70.247704 34.180794,60.947071   C29.046734,59.365036 26.606371,54.889854 28.022427,49.229607   C28.883160,45.789089 33.256763,43.677647 37.938610,45.051517   C52.555206,49.340679 67.118874,53.812897 81.673752,58.309032   C104.138039,65.248466 126.578041,72.266487 148.734833,79.159859   C150.592224,74.033905 151.207825,68.289230 154.313782,64.698944   C159.131638,59.129795 165.306931,54.515476 171.511139,50.409657   C185.524841,41.135670 199.755386,32.157818 214.272858,23.703714   C217.111053,22.050913 222.516953,21.841778 225.254562,23.466806   C242.069778,33.448181 258.704285,43.785069 274.894135,54.749073   C284.125397,61.000648 288.332947,60.233036 289.423584,79.253090   C292.932404,78.372025 296.396667,77.676292 299.752625,76.632423   C331.843262,66.650566 363.912079,56.598698 395.998718,46.603882   C399.073608,45.646065 402.308289,44.071289 405.320374,44.355541   C408.409790,44.647091 411.925629,45.860218 412.108612,50.605377   C412.296661,55.480579 411.874054,59.290001 406.284241,60.874283   C396.756073,63.574806 387.316925,66.591042 377.850159,69.506447   C362.964569,74.090660 348.077484,78.670364 333.208862,83.309052   C317.105865,88.332817 301.059448,93.542702 284.901367,98.380783   C281.669250,99.348541 278.045258,99.007401 274.301208,99.292694   C274.301208,103.988380 274.301208,108.721481 274.301208,113.455353   C293.259491,114.737167 310.399323,122.626534 328.209961,127.999214   C353.346069,135.581665 378.439270,143.306946 403.532410,151.030945   C407.623047,152.290100 411.835449,153.609360 412.006226,159.104126   C412.215485,165.837326 407.561890,169.442932 401.040558,167.440933   C379.961517,160.969742 358.882263,154.498474 337.834534,147.926498   C322.212524,143.048660 306.640747,138.009933 291.037720,133.070953   C290.596100,132.931152 290.053406,133.110733 289.001190,133.175842   C289.001190,135.436111 288.730713,137.741379 289.050354,139.961685   C290.140961,147.537552 283.190002,156.563553 276.920715,158.418304   C273.648407,159.386429 272.857300,160.409271 273.795044,164.270599   C280.460938,191.718185 286.628693,219.286499 292.999359,246.806122   C296.618744,262.440979 300.375000,278.044220 303.972656,293.683990   C307.716156,309.957764 310.614288,326.467712 315.216339,342.491119   C320.276642,360.109833 322.323486,378.375610 327.797241,395.870239   C329.572937,401.545441 325.460205,405.975952 318.995392,405.988068   C299.496979,406.024536 279.998474,406.001190 260.000000,406.001160  M285.991516,287.620728   C284.194122,280.531250 282.396729,273.441772 280.587402,266.305206   C278.985413,266.876465 277.224701,267.312012 275.637787,268.098297   C232.673935,289.387390 189.712646,310.681946 146.829590,332.132812   C144.945953,333.075043 142.951553,335.289368 142.457764,337.272003   C139.453613,349.334412 136.869751,361.501526 134.100449,373.834869   C185.666565,348.286926 236.924454,322.891693 288.129974,297.522400   C287.339203,294.162689 286.669403,291.316956 285.991516,287.620728  M281.620728,319.057770   C234.564743,342.452850 187.508759,365.847961 140.452774,389.243042   C163.228668,389.998199 185.704834,390.008759 208.180923,389.966217   C209.276764,389.964142 210.471954,389.699799 211.452515,389.216217   C239.825073,375.225067 268.190735,361.219452 296.480438,347.062073   C297.683411,346.460083 299.070618,344.182373 298.814911,343.031128   C296.678131,333.410400 294.176117,323.870789 291.735199,314.110626   C288.453430,315.805450 285.414001,317.375122 281.620728,319.057770  M242.655380,266.141205   C254.082336,260.469635 265.509277,254.798080 276.881866,249.153488   C274.369293,238.379715 271.994904,228.198593 269.554199,217.733047   C232.631134,235.977219 196.161484,253.971191 159.756561,272.095154   C158.491943,272.724731 157.407669,274.530426 157.027573,275.992859   C154.250824,286.676239 151.643799,297.404480 149.083206,308.142395   C148.804047,309.312988 149.159912,310.635040 149.260773,312.694214   C180.562271,297.136414 211.300354,281.858643 242.655380,266.141205  M169.449631,221.934692   C167.174545,231.837280 164.899475,241.739868 162.360153,252.792526   C197.633301,235.181076 231.658005,218.192963 265.764557,201.163971   C263.305450,190.587189 260.909058,180.279984 258.436676,169.646057   C256.820343,170.279709 255.592117,170.660202 254.453583,171.222382   C228.978500,183.801147 203.622543,196.629822 177.963486,208.820740   C172.113525,211.600113 169.928055,215.342133 169.449631,221.934692  M236.500000,82.998817   C248.594849,82.998817 260.689697,82.998817 273.590576,82.998817   C272.936188,78.999626 273.294495,75.097015 271.611084,72.536957   C269.758728,69.720009 266.140076,67.960808 263.097992,66.047607   C248.751984,57.025295 234.339859,48.108135 219.859726,39.096481   C204.282761,49.006046 188.576401,58.962620 172.909637,68.981133   C166.180115,73.284500 165.869400,74.251694 167.679459,82.998817   C190.250397,82.998817 212.875198,82.998817 236.500000,82.998817  M251.499893,129.988556   C223.436249,129.988556 195.372604,129.988556 166.993286,129.988556   C166.993286,133.500259 167.011017,136.465347 166.988373,139.430145   C166.965012,142.490067 168.436462,144.012756 171.515213,144.012268   C203.799072,144.007095 236.083313,144.064636 268.365631,143.840622   C269.919159,143.829834 272.428650,141.577576 272.792725,139.981323   C273.500519,136.878128 272.999969,133.499313 272.999969,129.988556   C265.766357,129.988556 259.133087,129.988556 251.499893,129.988556  M198.502090,113.998795   C218.229568,113.998795 237.957047,113.998795 257.694122,113.998795   C257.694122,108.711098 257.694122,103.990135 257.694122,99.281769   C232.365204,99.281769 207.342041,99.281769 182.305786,99.281769   C182.305786,104.288681 182.305786,109.009644 182.305786,113.998795   C187.573181,113.998795 192.538467,113.998795 198.502090,113.998795  M204.500275,160.001190   C198.841949,160.001282 193.182968,160.052765 187.525620,159.978256   C184.963501,159.944504 183.222000,160.136200 182.855850,163.516693   C182.441650,167.340652 180.916000,171.031250 180.086395,174.826355   C178.932922,180.103149 177.977280,185.423203 176.745483,191.700500   C198.018600,181.058502 218.265839,170.929718 238.513077,160.800919   C238.432663,160.534348 238.352234,160.267761 238.271805,160.001190   C227.347931,160.001190 216.424042,160.001190 204.500275,160.001190  M285.500000,389.998840   C293.472961,389.998840 301.445892,389.998840 309.713898,389.998840   C307.510864,380.780090 305.367554,371.811310 303.150513,362.533936   C284.357147,371.740112 266.465759,380.504456 248.574417,389.268768   C248.643600,389.512115 248.712784,389.755493 248.781967,389.998840   C260.687988,389.998840 272.593994,389.998840 285.500000,389.998840  z"
   id="path20" />









</svg>
